<?xml version="1.0" encoding="UTF-8" standalone="no"?>
<!DOCTYPE svg PUBLIC "-//W3C//DTD SVG 1.1//EN" "http://www.w3.org/Graphics/SVG/1.1/DTD/svg11.dtd">
<svg width="100%" height="100%" viewBox="0 0 299 226" version="1.1" xmlns="http://www.w3.org/2000/svg" xmlns:xlink="http://www.w3.org/1999/xlink" xml:space="preserve" xmlns:serif="http://www.serif.com/" style="fill-rule:evenodd;clip-rule:evenodd;stroke-linejoin:round;stroke-miterlimit:2;">
    <g transform="matrix(1,0,0,1,-506,-187.5)">
        <g>
            <g transform="matrix(1,0,0,1,-2,-6.5)">
                <rect x="508" y="194" width="20" height="226" style="fill:rgb(131,29,15);"/>
            </g>
            <g transform="matrix(1,0,0,1,277,-6.5)">
                <rect x="508" y="194" width="20" height="226" style="fill:rgb(131,29,15);"/>
            </g>
            <g transform="matrix(6.12323e-17,1,-0.778761,4.76854e-17,898.08,-320.5)">
                <rect x="508" y="194" width="20" height="226" style="fill:rgb(131,29,15);"/>
            </g>
            <g transform="matrix(6.12323e-17,1,-0.778761,4.76854e-17,898.08,-217.5)">
                <rect x="508" y="194" width="20" height="226" style="fill:rgb(131,29,15);"/>
            </g>
            <g transform="matrix(6.12323e-17,1,-0.778761,4.76854e-17,898.08,-126.5)">
                <rect x="508" y="194" width="20" height="226" style="fill:rgb(131,29,15);"/>
            </g>
            <g transform="matrix(1.07386,0,0,0.836283,25.4773,40.2611)">
                <rect x="508" y="194" width="20" height="226" style="fill:rgb(131,29,15);"/>
            </g>
            <g transform="matrix(1.07386,0,0,0.836283,180,40.2611)">
                <rect x="508" y="194" width="20" height="226" style="fill:rgb(131,29,15);"/>
            </g>
            <g transform="matrix(6.57552e-17,1.07386,-0.327434,2.00495e-17,868.045,-339.023)">
                <rect x="508" y="194" width="20" height="226" style="fill:rgb(131,29,15);"/>
            </g>
            <g transform="matrix(6.57552e-17,1.07386,-0.327434,2.00495e-17,868.045,-287.023)">
                <rect x="508" y="194" width="20" height="226" style="fill:rgb(131,29,15);"/>
            </g>
            <g transform="matrix(6.57552e-17,1.07386,-0.327434,2.00495e-17,868.045,-230.023)">
                <rect x="508" y="194" width="20" height="226" style="fill:rgb(131,29,15);"/>
            </g>
            <g transform="matrix(6.57552e-17,1.07386,-0.327434,2.00495e-17,868.045,-180.023)">
                <rect x="508" y="194" width="20" height="226" style="fill:rgb(131,29,15);"/>
            </g>
            <g transform="matrix(6.57552e-17,1.07386,-0.327434,2.00495e-17,651.045,-339.023)">
                <rect x="508" y="194" width="20" height="226" style="fill:rgb(131,29,15);"/>
            </g>
            <g transform="matrix(6.57552e-17,1.07386,-0.327434,2.00495e-17,651.045,-287.023)">
                <rect x="508" y="194" width="20" height="226" style="fill:rgb(131,29,15);"/>
            </g>
            <g transform="matrix(6.57552e-17,1.07386,-0.327434,2.00495e-17,651.045,-230.023)">
                <rect x="508" y="194" width="20" height="226" style="fill:rgb(131,29,15);"/>
            </g>
            <g transform="matrix(6.57552e-17,1.07386,-0.327434,2.00495e-17,651.045,-180.023)">
                <rect x="508" y="194" width="20" height="226" style="fill:rgb(131,29,15);"/>
            </g>
        </g>
    </g>
</svg>
